# xmcd CD database file
#
# Track frame offsets:
#	150
#	13782
#	22661
#	30378
#	37221
#	41984
#	50557
#	58273
#	64322
#	74028
#	85625
#	92823
#	101020
#	105714
#
# Disc length: 1661 seconds
#
# Revision: 0
# Processed by: cddbd v1.5.1PL0 Copyright (c) Steve Scherf et al.
# Submitted via: CDex 1.60beta1
#
DISCID=c3067b0e
DTITLE=Reynold Philipsek - 14 Pieces for Guitar
DYEAR=1900
DGENRE=Jazz
TTITLE0=Libson
TTITLE1=Prelude
TTITLE2=Chartreuse
TTITLE3=Windmills?
TTITLE4=The Hermit Crab
TTITLE5=Minuet on the name Ravel
TTITLE6=Beethoven Sousa
TTITLE7=Canon 1/1/01
TTITLE8=The Laughing Cavalier
TTITLE9=Colonial Gardens
TTITLE10=Easter Morning Dove
TTITLE11=Sonatina
TTITLE12=Vienna Blues
TTITLE13=Long Ago, Far Away
EXTD=
EXTT0=
EXTT1=
EXTT2=
EXTT3=
EXTT4=
EXTT5=
EXTT6=
EXTT7=
EXTT8=
EXTT9=
EXTT10=
EXTT11=
EXTT12=
EXTT13=
PLAYORDER=
